wght100_wdth125.ufo
<glyph name="zero" format="2">
	<unicode hex="0030"/>
	<advance width="1191"/>
	<outline>
		<contour>
			<point x="72.9990234375" y="746.0256347656" type="qcurve" smooth="yes"/>
			<point x="72.9990234375" y="1114.7063598633"/>
			<point x="367.1635742188" y="1514.0032958984"/>
			<point x="593.6682128906" y="1514.0032958984" type="qcurve" smooth="yes"/>
			<point x="821.5046386719" y="1514.0032958984"/>
			<point x="1117.8402099609" y="1135.6823730469"/>
			<point x="1117.8402099609" y="749.0016479492" type="qcurve" smooth="yes"/>
			<point x="1117.8402099609" y="398.2249755859"/>
			<point x="835.1236572266" y="-29"/>
			<point x="595.6682128906" y="-29" type="qcurve" smooth="yes"/>
			<point x="370.2015380859" y="-29"/>
			<point x="72.9990234375" y="358.3688964844"/>
		</contour>
		<contour>
			<point x="267.1843261719" y="762.9536743164" type="qcurve" smooth="yes"/>
			<point x="259" y="481"/>
			<point x="441.6701660156" y="83.8861083984"/>
			<point x="596.6682128906" y="83.8861083984" type="qcurve" smooth="yes"/>
			<point x="759.6662597656" y="83.8861083984"/>
			<point x="917" y="447"/>
			<point x="923.6549072266" y="752.0256347656" type="qcurve" smooth="yes"/>
			<point x="917" y="1027"/>
			<point x="757.6662597656" y="1395.5977172852"/>
			<point x="598.6682128906" y="1395.5977172852" type="qcurve" smooth="yes"/>
			<point x="438.6701660156" y="1395.5977172852"/>
			<point x="259" y="1060"/>
		</contour>
	</outline>
</glyph>
<glyph name="one" format="2">
	<unicode hex="0031"/>
	<advance width="817"/>
	<outline>
		<contour>
			<point x="22.8823242188" y="0" type="line"/>
			<point x="22.8823242188" y="94.0017089844" type="line"/>
			<point x="279.8781738281" y="122.0017089844" type="line"/>
			<point x="283.8781738281" y="751.8411865234" type="line"/>
			<point x="287.8781738281" y="1380.8361206055" type="line"/>
			<point x="33.8327636719" y="1408.9452514648" type="line"/>
			<point x="33.8327636719" y="1499.9658203125" type="line"/>
			<point x="455.0690917969" y="1513.0032958984" type="line"/>
			<point x="473.111328125" y="1484.8298950195" type="line"/>
			<point x="461.4923095703" y="751.8411865234" type="line"/>
			<point x="457.4923095703" y="122.0017089844" type="line"/>
			<point x="683.4881591797" y="94.0017089844" type="line"/>
			<point x="683.4881591797" y="0" type="line"/>
		</contour>
	</outline>
</glyph>
<glyph name="two" format="2">
	<unicode hex="0032"/>
	<advance width="1098"/>
	<outline>
		<contour>
			<point x="44.9990234375" y="-0.4423217773" type="line"/>
			<point x="44.9990234375" y="86" type="line"/>
			<point x="55.913269043" y="226.4003295898"/>
			<point x="206.8200683594" y="536.217590332"/>
			<point x="452.6202392578" y="666.6207275391" type="qcurve" smooth="yes"/>
			<point x="639.8084716797" y="769.2838134766"/>
			<point x="830.8790283203" y="968.1832275391"/>
			<point x="830.8790283203" y="1118.8255615234" type="qcurve" smooth="yes"/>
			<point x="830.8790283203" y="1251.1397705078"/>
			<point x="663.2215576172" y="1383.7130737305"/>
			<point x="501.3478393555" y="1383.7130737305" type="qcurve" smooth="yes"/>
			<point x="331.166015625" y="1383.7130737305"/>
			<point x="170.9262695312" y="1259.9906005859"/>
			<point x="162.9615478516" y="1207.7990112305" type="qcurve"/>
			<point x="80.9990234375" y="1298.0145263672" type="line"/>
			<point x="120.8586425781" y="1373.4468994141"/>
			<point x="355.0413818359" y="1514.0032958984"/>
			<point x="555.2138061523" y="1514.0032958984" type="qcurve" smooth="yes"/>
			<point x="809.3414306641" y="1514.0032958984"/>
			<point x="1030.3974609375" y="1311.8188476562"/>
			<point x="1030.3974609375" y="1141.0412597656" type="qcurve" smooth="yes"/>
			<point x="1030.3974609375" y="941.0196533203"/>
			<point x="868.8760986328" y="693.8093261719"/>
			<point x="582.5720214844" y="567.2221679688" type="qcurve" smooth="yes"/>
			<point x="330.5074462891" y="452.6276855469"/>
			<point x="242.0338134766" y="264.2927856445"/>
			<point x="210.6610717773" y="172.3759765625" type="qcurve"/>
			<point x="213.6610717773" y="167.4239501953" type="line"/>
			<point x="1088.5034179688" y="167.4239501953" type="line"/>
			<point x="1088.5034179688" y="-0.4423217773" type="line"/>
		</contour>
	</outline>
</glyph>
<glyph name="three" format="2">
	<unicode hex="0033"/>
	<advance width="976"/>
	<outline>
		<contour>
			<point x="-25.0009765625" y="163" type="qcurve"/>
			<point x="49.1922607422" y="262.2321777344" type="line"/>
			<point x="110.3493041992" y="184.2244873047"/>
			<point x="249.7894897461" y="89.1939697266"/>
			<point x="386.9709472656" y="89.1939697266" type="qcurve" smooth="yes"/>
			<point x="519.8846435547" y="89.1939697266"/>
			<point x="700.8371582031" y="254.8728637695"/>
			<point x="700.8371582031" y="418.1334228516" type="qcurve" smooth="yes"/>
			<point x="700.8371582031" y="572.1777954102"/>
			<point x="560.6401367188" y="713.2510375977"/>
			<point x="420.2634277344" y="711.9240722656" type="qcurve" smooth="yes"/>
			<point x="222.1979370117" y="711.9240722656" type="line"/>
			<point x="195.2799682617" y="821.4783325195" type="line"/>
			<point x="353.6136474609" y="823.4783325195" type="line" smooth="yes"/>
			<point x="459.1337890625" y="824.1033935547"/>
			<point x="675.4466552734" y="992.6762695312"/>
			<point x="675.4466552734" y="1141.5236816406" type="qcurve" smooth="yes"/>
			<point x="675.4466552734" y="1282.5393066406"/>
			<point x="527.8677978516" y="1398.7662353516"/>
			<point x="391.405090332" y="1398.7662353516" type="qcurve" smooth="yes"/>
			<point x="281.4485473633" y="1398.7662353516"/>
			<point x="131.6649169922" y="1270.1228637695"/>
			<point x="125.8182983398" y="1201.9138793945" type="qcurve"/>
			<point x="59.4962158203" y="1302.942565918" type="line"/>
			<point x="103.794921875" y="1381.428527832"/>
			<point x="314.4309082031" y="1513.9553222656"/>
			<point x="487.8200683594" y="1513.9553222656" type="qcurve" smooth="yes"/>
			<point x="657.6287841797" y="1513.9553222656"/>
			<point x="861.2509765625" y="1348.6749267578"/>
			<point x="861.2509765625" y="1181.2858276367" type="qcurve" smooth="yes"/>
			<point x="861.2509765625" y="1021.8742675781"/>
			<point x="655.2569580078" y="830.6444091797"/>
			<point x="524.0798339844" y="786.7617797852" type="qcurve"/>
			<point x="524.9368896484" y="784.809753418" type="line"/>
			<point x="639.8254394531" y="771.8832397461"/>
			<point x="891.6203613281" y="578.1245117188"/>
			<point x="891.6203613281" y="390.3101806641" type="qcurve" smooth="yes"/>
			<point x="891.6203613281" y="199.1604614258"/>
			<point x="663.005859375" y="-28"/>
			<point x="505.4299316406" y="-28" type="qcurve" smooth="yes"/>
			<point x="327.2689208984" y="-28"/>
			<point x="62.1495361328" y="70.4971923828"/>
		</contour>
	</outline>
</glyph>
<glyph name="four" format="2">
	<unicode hex="0034"/>
	<advance width="1021"/>
	<outline>
		<contour>
			<point x="-31.0009765625" y="511.1770019531" type="line"/>
			<point x="609.1590576172" y="1504.4830322266" type="line"/>
			<point x="729.8707275391" y="1506.4830322266" type="line"/>
			<point x="785.4412841797" y="1450.4830322266" type="line"/>
			<point x="780.4412841797" y="473.1571655273" type="line"/>
			<point x="780.4412841797" y="122.0017089844" type="line"/>
			<point x="975.2572021484" y="94.0017089844" type="line"/>
			<point x="975.2572021484" y="0" type="line"/>
			<point x="342.2183837891" y="0" type="line"/>
			<point x="342.2183837891" y="94.0017089844" type="line"/>
			<point x="606.3983154297" y="122.0017089844" type="line"/>
			<point x="606.3983154297" y="476.1571655273" type="line"/>
			<point x="606.3983154297" y="1288.1959838867" type="line"/>
			<point x="118.0355224609" y="522.1770019531" type="line"/>
			<point x="125.0355224609" y="516.1770019531" type="line"/>
			<point x="1009.5510253906" y="522.1770019531" type="line"/>
			<point x="1009.5510253906" y="415.3680419922" type="line"/>
			<point x="-17.0009765625" y="412.3680419922" type="line"/>
		</contour>
	</outline>
</glyph>
<glyph name="five" format="2">
	<unicode hex="0035"/>
	<advance width="1135"/>
	<outline>
		<contour>
			<point x="-4.0009765625" y="163" type="qcurve"/>
			<point x="57.1460571289" y="267.1408081055" type="line"/>
			<point x="100.2554931641" y="214.5462036133"/>
			<point x="303.1062011719" y="93.290222168"/>
			<point x="502.1591186523" y="93.290222168" type="qcurve" smooth="yes"/>
			<point x="695.3701171875" y="93.290222168"/>
			<point x="877.6064453125" y="325.6519165039"/>
			<point x="877.6064453125" y="517.7540283203" type="qcurve" smooth="yes"/>
			<point x="877.6064453125" y="697.8801269531"/>
			<point x="617.5528564453" y="840.3567504883"/>
			<point x="466.4793701172" y="806.3567504883" type="qcurve" smooth="yes"/>
			<point x="188.4166259766" y="775.3567504883" type="line"/>
			<point x="151.1469726562" y="820.8337402344" type="line"/>
			<point x="233.1469726562" y="1469.3870849609" type="line"/>
			<point x="265.1469726562" y="1494.3870849609" type="line"/>
			<point x="1009.2308349609" y="1494.3870849609" type="line"/>
			<point x="995.0406494141" y="1320.7729492188" type="line"/>
			<point x="343.4196777344" y="1320.7729492188" type="line"/>
			<point x="333.4196777344" y="1309.7729492188" type="line"/>
			<point x="272.821472168" y="894.8436279297" type="line"/>
			<point x="437.4366455078" y="925.4689941406" type="line"/>
			<point x="759.6228027344" y="961.9661865234"/>
			<point x="1067.5480957031" y="730.4161376953"/>
			<point x="1063.5480957031" y="490.5183105469" type="qcurve" smooth="yes"/>
			<point x="1060.5480957031" y="254.112487793"/>
			<point x="804.0787353516" y="-28"/>
			<point x="576.9810791016" y="-28" type="qcurve" smooth="yes"/>
			<point x="340.4040527344" y="-28"/>
			<point x="78.9171142578" y="85.0336914062"/>
		</contour>
	</outline>
</glyph>
<glyph name="six" format="2">
	<unicode hex="0036"/>
	<advance width="1157"/>
	<outline>
		<contour>
			<point x="71.9990234375" y="624.577331543" type="qcurve" smooth="yes"/>
			<point x="77.9990234375" y="968.8272094727"/>
			<point x="450.5177001953" y="1456.4197387695"/>
			<point x="709.4725341797" y="1546.0032958984" type="qcurve"/>
			<point x="740.0747680664" y="1440.2111816406" type="line"/>
			<point x="559.0964355469" y="1366.3356323242"/>
			<point x="269.9462890625" y="937.8681640625"/>
			<point x="264.9462890625" y="627.577331543" type="qcurve" smooth="yes"/>
			<point x="260.9462890625" y="394.3135375977"/>
			<point x="409.5695800781" y="82.0014648438"/>
			<point x="595.3541259766" y="82.0014648438" type="qcurve" smooth="yes"/>
			<point x="760.138671875" y="82.0014648438"/>
			<point x="931.4388427734" y="317.8308105469"/>
			<point x="935.4388427734" y="480.1770019531" type="qcurve" smooth="yes"/>
			<point x="939.4388427734" y="622.6014404297"/>
			<point x="793.1463623047" y="845.3760375977"/>
			<point x="679.5352172852" y="845.3760375977" type="qcurve" smooth="yes"/>
			<point x="557.7307128906" y="845.3760375977"/>
			<point x="455.8376464844" y="775.3520507812"/>
			<point x="466.5610351562" y="773.7755126953" type="qcurve"/>
			<point x="424.4608154297" y="856.438659668" type="line"/>
			<point x="423.8250732422" y="863.5811157227"/>
			<point x="568.8007202148" y="947.4019775391"/>
			<point x="709.0485839844" y="947.4019775391" type="qcurve" smooth="yes"/>
			<point x="914.8733520508" y="947.4019775391"/>
			<point x="1136.4333496094" y="697.3134765625"/>
			<point x="1135.4333496094" y="543.7598876953" type="qcurve" smooth="yes"/>
			<point x="1134.4333496094" y="269.4866943359"/>
			<point x="854.4093017578" y="-30"/>
			<point x="602.1885986328" y="-30" type="qcurve" smooth="yes"/>
			<point x="374.0834960938" y="-30"/>
			<point x="66.9990234375" y="308.6215209961"/>
		</contour>
	</outline>
</glyph>
<glyph name="seven" format="2">
	<unicode hex="0037"/>
	<advance width="906"/>
	<outline>
		<contour>
			<point x="-19.5193481445" y="1092.7305908203" type="line"/>
			<point x="12.6706542969" y="1494.3870849609" type="line"/>
			<point x="920.6011962891" y="1494.3870849609" type="line"/>
			<point x="920.6011962891" y="1376.0557861328" type="line"/>
			<point x="649.5992431641" y="743.5070800781" type="line"/>
			<point x="362.4696044922" y="-12" type="line"/>
			<point x="182.2370605469" y="-12" type="line"/>
			<point x="182.2370605469" y="80.9509277344" type="line"/>
			<point x="512.1474609375" y="793.8041381836" type="line"/>
			<point x="714.7857055664" y="1311.7250976562" type="line"/>
			<point x="705.7857055664" y="1325.7250976562" type="line"/>
			<point x="159.4816894531" y="1325.7250976562" type="line"/>
			<point x="103.4818725586" y="1092.7305908203" type="line"/>
		</contour>
	</outline>
</glyph>
<glyph name="eight" format="2">
	<unicode hex="0038"/>
	<advance width="1090"/>
	<outline>
		<contour>
			<point x="66.4215087891" y="360.315246582" type="qcurve" smooth="yes"/>
			<point x="68.4215087891" y="533.5397949219"/>
			<point x="359.030090332" y="779.5956420898"/>
			<point x="439.4982910156" y="819.5003051758" type="qcurve"/>
			<point x="476.6940917969" y="761.821105957" type="line"/>
			<point x="387.5650024414" y="704.201965332"/>
			<point x="209.3656616211" y="495.4666748047"/>
			<point x="207.3656616211" y="370.5095825195" type="qcurve" smooth="yes"/>
			<point x="203.3656616211" y="233.6223144531"/>
			<point x="397.9556274414" y="82.1168212891"/>
			<point x="548.1627807617" y="82.1168212891" type="qcurve" smooth="yes"/>
			<point x="704.1676635742" y="82.1168212891"/>
			<point x="857.7919921875" y="251.7182617188"/>
			<point x="861.7919921875" y="382.3677368164" type="qcurve" smooth="yes"/>
			<point x="865.7919921875" y="535.1714477539"/>
			<point x="605.2189941406" y="647.4282836914"/>
			<point x="506.1263427734" y="718.5490112305" type="qcurve" smooth="yes"/>
			<point x="285.1059570312" y="823.6987915039"/>
			<point x="124.1197509766" y="1013.8626098633"/>
			<point x="124.1197509766" y="1171.0872192383" type="qcurve" smooth="yes"/>
			<point x="124.1197509766" y="1317.4395751953"/>
			<point x="383.7625732422" y="1512.1951904297"/>
			<point x="542.8723144531" y="1512.1951904297" type="qcurve" smooth="yes"/>
			<point x="722.4165039062" y="1512.1951904297"/>
			<point x="923.1282958984" y="1329.9147949219"/>
			<point x="923.1282958984" y="1192.8125610352" type="qcurve" smooth="yes"/>
			<point x="923.1282958984" y="1064.1623535156"/>
			<point x="723.6131591797" y="841.9852294922"/>
			<point x="599.2854003906" y="772.4668579102" type="qcurve"/>
			<point x="550.9696044922" y="828.7333374023" type="line"/>
			<point x="652.6880493164" y="903.2991333008"/>
			<point x="787.2994995117" y="1080.6979980469"/>
			<point x="787.7418212891" y="1179.3312988281" type="qcurve" smooth="yes"/>
			<point x="788.1841430664" y="1294.4477539062"/>
			<point x="617.0877685547" y="1402.6600341797"/>
			<point x="541.2144165039" y="1402.6600341797" type="qcurve" smooth="yes"/>
			<point x="436.9327392578" y="1402.6600341797"/>
			<point x="290.9252929688" y="1290.7424926758"/>
			<point x="288.9252929688" y="1192.1859130859" type="qcurve" smooth="yes"/>
			<point x="286.9252929688" y="1082.4493408203"/>
			<point x="428.2911987305" y="959.0382080078"/>
			<point x="646.4090576172" y="863.5968017578" type="qcurve" smooth="yes"/>
			<point x="733.6543579102" y="799.4655761719"/>
			<point x="1038.5018310547" y="587.5755615234"/>
			<point x="1038.5018310547" y="391.3436889648" type="qcurve" smooth="yes"/>
			<point x="1038.5018310547" y="212.4243164062"/>
			<point x="762.5118408203" y="-29"/>
			<point x="567.7276611328" y="-29" type="qcurve" smooth="yes"/>
			<point x="324.3498535156" y="-29"/>
			<point x="62.4215087891" y="197.8666381836"/>
		</contour>
	</outline>
</glyph>
<glyph name="nine" format="2">
	<unicode hex="0039"/>
	<advance width="1157"/>
	<outline>
		<contour>
			<point x="21.9990234375" y="986.9462280273" type="qcurve" smooth="yes"/>
			<point x="22.9990234375" y="1224.0587158203"/>
			<point x="282.7139892578" y="1515.979309082"/>
			<point x="526.2299804688" y="1515.979309082" type="qcurve" smooth="yes"/>
			<point x="772.7727050781" y="1515.979309082"/>
			<point x="1090.4333496094" y="1175.8493652344"/>
			<point x="1085.4333496094" y="861.4259643555" type="qcurve" smooth="yes"/>
			<point x="1079.4333496094" y="516.5053710938"/>
			<point x="695.442565918" y="32.7434082031"/>
			<point x="434.6141357422" y="-60.3837890625" type="qcurve"/>
			<point x="403.5090942383" y="46.4379272461" type="line"/>
			<point x="580.0831298828" y="100.2616577148"/>
			<point x="880.6768798828" y="548.1111450195"/>
			<point x="885.6768798828" y="858.4019775391" type="qcurve" smooth="yes"/>
			<point x="889.6768798828" y="1098.9772949219"/>
			<point x="726.9270019531" y="1403.9778442383"/>
			<point x="541.3823242188" y="1403.9778442383" type="qcurve" smooth="yes"/>
			<point x="376.285949707" y="1403.9778442383"/>
			<point x="219.1843261719" y="1173.6254272461"/>
			<point x="215.1843261719" y="1003.8150634766" type="qcurve" smooth="yes"/>
			<point x="211.1843261719" y="854.2161254883"/>
			<point x="347.1371459961" y="640.6032714844"/>
			<point x="473.1333007812" y="640.6032714844" type="qcurve" smooth="yes"/>
			<point x="545.0038452148" y="640.6032714844"/>
			<point x="673.5361938477" y="718.744140625"/>
			<point x="661.3638305664" y="718.5868530273" type="qcurve"/>
			<point x="711.4267578125" y="654.1782226562" type="line"/>
			<point x="702.6013793945" y="630.7540283203"/>
			<point x="565.7789306641" y="538.2175292969"/>
			<point x="421.0062866211" y="538.2175292969" type="qcurve" smooth="yes"/>
			<point x="250.8743286133" y="538.2175292969"/>
			<point x="20.9990234375" y="788.5219116211"/>
		</contour>
	</outline>
</glyph>
<glyph name="A" format="2">
	<unicode hex="0041"/>
	<advance width="1434"/>
	<outline>
		<contour>
			<point x="-99.9167480469" y="0" type="line"/>
			<point x="-97.9167480469" y="100.001953125" type="line"/>
			<point x="77.0856933594" y="135.001953125" type="line"/>
			<point x="270.0451049805" y="576.0979003906" type="line"/>
			<point x="619.3795776367" y="1508" type="line"/>
			<point x="742.4682617188" y="1508" type="line"/>
			<point x="1117.8565063477" y="600.329284668" type="line"/>
			<point x="1308.7830810547" y="135.001953125" type="line"/>
			<point x="1498.7855224609" y="100.001953125" type="line"/>
			<point x="1496.7855224609" y="0" type="line"/>
			<point x="911.9244995117" y="0" type="line"/>
			<point x="914.9244995117" y="100.001953125" type="line"/>
			<point x="1115.926940918" y="140.001953125" type="line"/>
			<point x="953.5875854492" y="568.9071655273" type="line"/>
			<point x="696.0117797852" y="1152.149597168" type="line"/>
			<point x="678.4251708984" y="1239.2567138672" type="line"/>
			<point x="674.4251708984" y="1239.2567138672" type="line"/>
			<point x="657.1029663086" y="1151.0205688477" type="line"/>
			<point x="408.984375" y="550.9923095703" type="line"/>
			<point x="240.5891113281" y="140.001953125" type="line"/>
			<point x="438.5915527344" y="100.001953125" type="line"/>
			<point x="436.5915527344" y="0" type="line"/>
		</contour>
		<contour>
			<point x="648.3204345703" y="580.0484008789" type="line"/>
			<point x="1002.8491210938" y="601.0806274414" type="line"/>
			<point x="1039.9706420898" y="470.8550415039" type="line"/>
			<point x="646.3204345703" y="472.8550415039" type="line"/>
		</contour>
		<contour>
			<point x="289.2233886719" y="468.8550415039" type="line"/>
			<point x="318.2435913086" y="599.5161132812" type="line"/>
			<point x="652.3723144531" y="580.0484008789" type="line"/>
			<point x="650.3723144531" y="472.8550415039" type="line"/>
		</contour>
	</outline>
	<anchor name="bottom" x="735" y="0"/>
	<anchor name="ogonek" x="1318" y="0"/>
	<anchor name="tonos" x="492" y="1500"/>
	<anchor name="top" x="753" y="1500"/>
</glyph>
<glyph name="F" format="2">
	<unicode hex="0046"/>
	<advance width="1049"/>
	<outline>
		<contour>
			<point x="81.99609375" y="0" type="line"/>
			<point x="81.99609375" y="100.001953125" type="line"/>
			<point x="290.9985351562" y="133.001953125" type="line"/>
			<point x="292.9985351562" y="763" type="line"/>
			<point x="290.9985351562" y="1359.7177734375" type="line"/>
			<point x="81.99609375" y="1392.7177734375" type="line"/>
			<point x="81.99609375" y="1500" type="line"/>
			<point x="1039.6248779297" y="1500" type="line"/>
			<point x="1039.6248779297" y="1147.0849609375" type="line"/>
			<point x="932.6281738281" y="1147.0849609375" type="line"/>
			<point x="885.6281738281" y="1380.3389282227" type="line"/>
			<point x="494.561340332" y="1380.3389282227" type="line"/>
			<point x="468.561340332" y="1354.3389282227" type="line"/>
			<point x="464.4450073242" y="763" type="line"/>
			<point x="469.561340332" y="138.001953125" type="line"/>
			<point x="683.5637817383" y="100.001953125" type="line"/>
			<point x="683.5637817383" y="0" type="line"/>
		</contour>
		<contour>
			<point x="380.0008544922" y="714.9033203125" type="line"/>
			<point x="380.0008544922" y="827.5321655273" type="line"/>
			<point x="748.6281738281" y="831.4837646484" type="line"/>
			<point x="793.6281738281" y="989.0648193359" type="line"/>
			<point x="891.6248779297" y="989.0648193359" type="line"/>
			<point x="891.6248779297" y="530.8137207031" type="line"/>
			<point x="793.6281738281" y="530.8137207031" type="line"/>
			<point x="748.6281738281" y="708.9517211914" type="line"/>
		</contour>
	</outline>
	<anchor name="bottom" x="578" y="0"/>
	<anchor name="top" x="622" y="1500"/>
</glyph>
<glyph name="H" format="2">
	<unicode hex="0048"/>
	<advance width="1741"/>
	<outline>
		<contour>
			<point x="81.99609375" y="0" type="line"/>
			<point x="81.99609375" y="100.001953125" type="line"/>
			<point x="289.9985351562" y="135.001953125" type="line"/>
			<point x="293.1148681641" y="754" type="line"/>
			<point x="289.9985351562" y="1359.7177734375" type="line"/>
			<point x="81.99609375" y="1393.7177734375" type="line"/>
			<point x="81.99609375" y="1500" type="line"/>
			<point x="685.5637817383" y="1500" type="line"/>
			<point x="685.5637817383" y="1393.7177734375" type="line"/>
			<point x="470.561340332" y="1359.7177734375" type="line"/>
			<point x="467.4450073242" y="754" type="line"/>
			<point x="470.561340332" y="135.001953125" type="line"/>
			<point x="685.5637817383" y="100.001953125" type="line"/>
			<point x="685.5637817383" y="0" type="line"/>
		</contour>
		<contour>
			<point x="398.0008544922" y="720.4356079102" type="line"/>
			<point x="398.0008544922" y="852.9998779297" type="line"/>
			<point x="888.457824707" y="840.4837646484" type="line"/>
			<point x="1331.565612793" y="852.9998779297" type="line"/>
			<point x="1331.565612793" y="720.4356079102" type="line"/>
			<point x="888.457824707" y="720.4356079102" type="line"/>
		</contour>
		<contour>
			<point x="1055.5608520508" y="0" type="line"/>
			<point x="1055.5608520508" y="100.001953125" type="line"/>
			<point x="1270.563293457" y="135.001953125" type="line"/>
			<point x="1273.6796264648" y="754" type="line"/>
			<point x="1270.563293457" y="1359.7177734375" type="line"/>
			<point x="1055.5608520508" y="1393.7177734375" type="line"/>
			<point x="1055.5608520508" y="1500" type="line"/>
			<point x="1659.1285400391" y="1500" type="line"/>
			<point x="1659.1285400391" y="1393.7177734375" type="line"/>
			<point x="1451.1260986328" y="1359.7177734375" type="line"/>
			<point x="1448.009765625" y="754" type="line"/>
			<point x="1451.1260986328" y="135.001953125" type="line"/>
			<point x="1659.1285400391" y="100.001953125" type="line"/>
			<point x="1659.1285400391" y="0" type="line"/>
		</contour>
	</outline>
	<anchor name="bottom" x="870" y="0"/>
	<anchor name="center" x="870" y="1079"/>
	<anchor name="top" x="870" y="1500"/>
	<anchor name="tonos" x="0" y="1500"/>
	<anchor name="cy_descender" x="1658" y="100"/>
</glyph>
<glyph name="I" format="2">
	<unicode hex="0049"/>
	<advance width="781"/>
	<outline>
		<contour>
			<point x="91.99609375" y="0" type="line"/>
			<point x="91.99609375" y="100.001953125" type="line"/>
			<point x="299.9985351562" y="135.001953125" type="line"/>
			<point x="303.1148681641" y="754" type="line"/>
			<point x="299.9985351562" y="1359.7177734375" type="line"/>
			<point x="91.99609375" y="1393.7177734375" type="line"/>
			<point x="91.99609375" y="1500" type="line"/>
			<point x="688.5637817383" y="1500" type="line"/>
			<point x="688.5637817383" y="1393.7177734375" type="line"/>
			<point x="480.561340332" y="1359.7177734375" type="line"/>
			<point x="477.4450073242" y="754" type="line"/>
			<point x="480.561340332" y="134.001953125" type="line"/>
			<point x="688.5637817383" y="100.001953125" type="line"/>
			<point x="688.5637817383" y="0" type="line"/>
		</contour>
	</outline>
	<anchor name="bottom" x="390" y="0"/>
	<anchor name="ogonek" x="526" y="0"/>
	<anchor name="top" x="390" y="1500"/>
	<anchor name="tonos" x="0" y="1500"/>
	<anchor name="yu_dash" x="380" y="755"/>
	<anchor name="_Yeru_I" x="82" y="0"/>
	<anchor name="liga" x="780" y="0"/>
</glyph>
<glyph name="M" format="2">
	<unicode hex="004D"/>
	<advance width="2103"/>
	<outline>
		<contour>
			<point x="82.99609375" y="0" type="line"/>
			<point x="82.99609375" y="100.001953125" type="line"/>
			<point x="291.9985351562" y="135.001953125" type="line"/>
			<point x="295.9985351562" y="771" type="line"/>
			<point x="291.9985351562" y="1359.7177734375" type="line"/>
			<point x="81.99609375" y="1393.7177734375" type="line"/>
			<point x="81.99609375" y="1500" type="line"/>
			<point x="603.8526611328" y="1500" type="line"/>
			<point x="867.9116821289" y="773.6682739258" type="line"/>
			<point x="1004.8356323242" y="338.6309204102" type="line"/>
			<point x="1029.9672851562" y="243.4138183594" type="line"/>
			<point x="1033.9672851562" y="243.4138183594" type="line"/>
			<point x="1062.6267089844" y="337.2067871094" type="line"/>
			<point x="1237.7689819336" y="794.6751098633" type="line"/>
			<point x="1476.5272827148" y="1500" type="line"/>
			<point x="2020.8085327148" y="1500" type="line"/>
			<point x="2020.8085327148" y="1393.7177734375" type="line"/>
			<point x="1812.8060913086" y="1359.7177734375" type="line"/>
			<point x="1809.8060913086" y="735" type="line"/>
			<point x="1812.8060913086" y="135.001953125" type="line"/>
			<point x="2020.8085327148" y="100.001953125" type="line"/>
			<point x="2020.8085327148" y="0" type="line"/>
			<point x="1422.4735107422" y="0" type="line"/>
			<point x="1422.4735107422" y="100.001953125" type="line"/>
			<point x="1635.4759521484" y="135.001953125" type="line"/>
			<point x="1637.4759521484" y="737" type="line"/>
			<point x="1630.3469238281" y="1312" type="line"/>
			<point x="1632.4759521484" y="1431" type="line"/>
			<point x="1628.4759521484" y="1432" type="line"/>
			<point x="1587.8794555664" y="1301.5198364258" type="line"/>
			<point x="1364.4593505859" y="748.4519042969" type="line"/>
			<point x="1099.0025024414" y="-24.3031616211" type="line"/>
			<point x="937.9389038086" y="-24.3031616211" type="line"/>
			<point x="713.7540893555" y="720.4853515625" type="line"/>
			<point x="479.6010131836" y="1304.970703125" type="line"/>
			<point x="432.6596069336" y="1432" type="line"/>
			<point x="428.6596069336" y="1431" type="line"/>
			<point x="430.6596069336" y="1312" type="line"/>
			<point x="428.6596069336" y="770" type="line"/>
			<point x="432.6596069336" y="135.001953125" type="line"/>
			<point x="633.6620483398" y="100.001953125" type="line"/>
			<point x="633.6620483398" y="0" type="line"/>
		</contour>
	</outline>
	<anchor name="bottom" x="1025" y="0"/>
	<anchor name="top" x="1058" y="1500"/>
</glyph>
<glyph name="N" format="2">
	<unicode hex="004E"/>
	<advance width="1590"/>
	<outline>
		<contour>
			<point x="81.99609375" y="0" type="line"/>
			<point x="81.99609375" y="100.001953125" type="line"/>
			<point x="284.9985351562" y="135.001953125" type="line"/>
			<point x="286.9985351562" y="753" type="line"/>
			<point x="284.9985351562" y="1359.7177734375" type="line"/>
			<point x="81.99609375" y="1393.7177734375" type="line"/>
			<point x="81.99609375" y="1500" type="line"/>
			<point x="526.5907592773" y="1500" type="line"/>
			<point x="871.6919555664" y="862.1228637695" type="line"/>
			<point x="1173.1374511719" y="379.5307006836" type="line"/>
			<point x="1195.5584106445" y="313.432800293" type="line"/>
			<point x="1199.5584106445" y="314.432800293" type="line"/>
			<point x="1195.9224243164" y="396.432800293" type="line"/>
			<point x="1198.7997436523" y="751" type="line"/>
			<point x="1191.7997436523" y="1359.7177734375" type="line"/>
			<point x="968.7973022461" y="1393.7177734375" type="line"/>
			<point x="968.7973022461" y="1500" type="line"/>
			<point x="1528.9955444336" y="1500" type="line"/>
			<point x="1528.9955444336" y="1393.7177734375" type="line"/>
			<point x="1334.9931030273" y="1359.7177734375" type="line"/>
			<point x="1330.9931030273" y="753" type="line"/>
			<point x="1333.9931030273" y="-6" type="line"/>
			<point x="1168.2722167969" y="-6" type="line"/>
			<point x="724.2122802734" y="782.8787231445" type="line"/>
			<point x="419.469909668" y="1289.9097290039" type="line"/>
			<point x="417.9276123047" y="1335.7649536133" type="line"/>
			<point x="413.9276123047" y="1333.6486206055" type="line"/>
			<point x="420.3209228516" y="1291.6486206055" type="line"/>
			<point x="420.3209228516" y="755" type="line"/>
			<point x="425.3209228516" y="135.001953125" type="line"/>
			<point x="606.3233642578" y="100.001953125" type="line"/>
			<point x="606.3233642578" y="0" type="line"/>
		</contour>
	</outline>
	<anchor name="bottom" x="800" y="0"/>
	<anchor name="top" x="800" y="1500"/>
	<anchor name="engtail" x="1324" y="0"/>
	<anchor name="liga" x="1600" y="0"/>
</glyph>
<glyph name="S" format="2">
	<unicode hex="0053"/>
	<advance width="1111"/>
	<outline>
		<contour>
			<point x="80.4991455078" y="0" type="line"/>
			<point x="80.4991455078" y="528.3234863281" type="line"/>
			<point x="193.7618408203" y="528.3234863281" type="line"/>
			<point x="215.0047607422" y="398.0481567383" type="line" smooth="yes"/>
			<point x="237.0047607422" y="257.0481567383"/>
			<point x="448.9362182617" y="99.0481567383"/>
			<point x="625.3060913086" y="99.0481567383" type="qcurve" smooth="yes"/>
			<point x="751.4700317383" y="99.0481567383"/>
			<point x="900.4044189453" y="212.6896972656"/>
			<point x="900.3842163086" y="345.4647827148" type="qcurve" smooth="yes"/>
			<point x="900.3640136719" y="519.9624633789"/>
			<point x="761.4065551758" y="638.7863769531"/>
			<point x="565.2193603516" y="715.6197509766" type="qcurve" smooth="yes"/>
			<point x="316.3353881836" y="792.3559570312"/>
			<point x="138.1773071289" y="994.4865112305"/>
			<point x="138.1773071289" y="1164.138671875" type="qcurve" smooth="yes"/>
			<point x="138.1773071289" y="1318.6040039062"/>
			<point x="328.0134277344" y="1519"/>
			<point x="512.8239135742" y="1519" type="qcurve" smooth="yes"/>
			<point x="652.3037719727" y="1519"/>
			<point x="799.7736206055" y="1431.5581665039"/>
			<point x="832.4404296875" y="1375" type="qcurve"/>
			<point x="855.9047851562" y="1487" type="line"/>
			<point x="969.2309570312" y="1487" type="line"/>
			<point x="969.2309570312" y="1011.0250244141" type="line"/>
			<point x="855.8531494141" y="1011.0250244141" type="line"/>
			<point x="831.5616455078" y="1135.8712158203" type="line" smooth="yes"/>
			<point x="806.6779785156" y="1259.6150512695"/>
			<point x="602.3262329102" y="1385.8712158203"/>
			<point x="529.116027832" y="1385.8712158203" type="qcurve" smooth="yes"/>
			<point x="393.5352783203" y="1385.8712158203"/>
			<point x="324.6320800781" y="1291.1650390625"/>
			<point x="325.6118774414" y="1189.8916625977" type="qcurve" smooth="yes"/>
			<point x="326.5916748047" y="1085.4275512695"/>
			<point x="396.6287231445" y="942.7684936523"/>
			<point x="695.5615844727" y="854.6002197266" type="qcurve" smooth="yes"/>
			<point x="823.8200073242" y="786.6817016602"/>
			<point x="1092.3706054688" y="595.5134887695"/>
			<point x="1092.3706054688" y="413.0939941406" type="qcurve" smooth="yes"/>
			<point x="1092.3706054688" y="227.001159668"/>
			<point x="845.2111206055" y="-34"/>
			<point x="608.5241088867" y="-34" type="qcurve" smooth="yes"/>
			<point x="491.9743652344" y="-34"/>
			<point x="249.2380981445" y="73"/>
			<point x="231.4602050781" y="138" type="qcurve"/>
			<point x="185.9990844727" y="0" type="line"/>
		</contour>
	</outline>
	<anchor name="bottom" x="599" y="0"/>
	<anchor name="top" x="514" y="1500"/>
</glyph>
<glyph name="Z" format="2">
	<unicode hex="005A"/>
	<advance width="1116"/>
	<outline>
		<contour>
			<point x="38.8834838867" y="0" type="line"/>
			<point x="9.8996582031" y="86.5159912109" type="line"/>
			<point x="914.3225708008" y="1370.3389282227" type="line"/>
			<point x="908.3225708008" y="1377.3389282227" type="line"/>
			<point x="238.9696044922" y="1377.3389282227" type="line"/>
			<point x="168.5323486328" y="1053.4036254883" type="line"/>
			<point x="66.955078125" y="1053.4036254883" type="line"/>
			<point x="66.955078125" y="1500" type="line"/>
			<point x="1067.0667114258" y="1500" type="line"/>
			<point x="1067.0667114258" y="1398.532409668" type="line"/>
			<point x="194.2003173828" y="132.0159301758" type="line"/>
			<point x="199.2003173828" y="117.0159301758" type="line"/>
			<point x="942.2150878906" y="117.0159301758" type="line"/>
			<point x="1029.7672729492" y="451.2953491211" type="line"/>
			<point x="1131.1931152344" y="451.2953491211" type="line"/>
			<point x="1083.8408813477" y="0" type="line"/>
		</contour>
	</outline>
	<anchor name="bottom" x="583" y="0"/>
	<anchor name="top" x="583" y="1500"/>
	<anchor name="_liga" x="0" y="0"/>
</glyph>
<glyph name="a" format="2">
	<unicode hex="0061"/>
	<advance width="1006"/>
	<outline>
		<contour>
			<point x="-9.8583984375" y="258.5322265625" type="qcurve" smooth="yes"/>
			<point x="-9.8583984375" y="420.7983398438"/>
			<point x="326.3978881836" y="639.8604736328"/>
			<point x="693.9738769531" y="684.3240356445" type="qcurve"/>
			<point x="700.9738769531" y="591.0762329102" type="line"/>
			<point x="406.7088012695" y="552.8721313477"/>
			<point x="163.2388916016" y="379.7271728516"/>
			<point x="163.2388916016" y="267.328125" type="qcurve" smooth="yes"/>
			<point x="163.2388916016" y="162.8931884766"/>
			<point x="251.2830810547" y="77.1120605469"/>
			<point x="399.9476318359" y="77.1120605469" type="qcurve" smooth="yes"/>
			<point x="474.7098388672" y="77.1120605469"/>
			<point x="623.3397827148" y="191.6005859375"/>
			<point x="633.5670166016" y="239.9821777344" type="qcurve"/>
			<point x="634.1348876953" y="601.477355957" type="line" smooth="yes"/>
			<point x="634.6410522461" y="789.9248046875"/>
			<point x="552.0194702148" y="908.9898681641"/>
			<point x="425.5284423828" y="908.9898681641" type="qcurve" smooth="yes"/>
			<point x="286.030090332" y="908.9898681641"/>
			<point x="294.3201293945" y="875.0276489258"/>
			<point x="274.2916259766" y="871.7560424805" type="qcurve"/>
			<point x="278.1796875" y="859.1514892578"/>
			<point x="300.4756469727" y="827.3495483398"/>
			<point x="301.5496826172" y="796.287902832" type="qcurve" smooth="yes"/>
			<point x="306.0850219727" y="754.6091308594"/>
			<point x="241.9412231445" y="684.337890625"/>
			<point x="187.7192993164" y="684.337890625" type="qcurve" smooth="yes"/>
			<point x="133.9353027344" y="684.337890625"/>
			<point x="71.6126708984" y="743.1029663086"/>
			<point x="71.6126708984" y="808.3988647461" type="qcurve" smooth="yes"/>
			<point x="71.6126708984" y="891.4358520508"/>
			<point x="253.9125976562" y="1023.1022949219"/>
			<point x="422.6738891602" y="1023.1022949219" type="qcurve" smooth="yes"/>
			<point x="625.4400634766" y="1023.1022949219"/>
			<point x="795.0471801758" y="857.6197509766"/>
			<point x="795.0471801758" y="698.5029907227" type="qcurve" smooth="yes"/>
			<point x="795.0471801758" y="107.0009765625" type="line"/>
			<point x="943.0501098633" y="80.0009765625" type="line"/>
			<point x="943.0501098633" y="0" type="line"/>
			<point x="690.4923706055" y="0" type="line"/>
			<point x="642.6779785156" y="41.7650756836" type="line"/>
			<point x="634.0731811523" y="146.3326416016" type="line"/>
			<point x="598.3079833984" y="89.2365722656"/>
			<point x="436.8131103516" y="-18"/>
			<point x="244.7536010742" y="-18" type="qcurve" smooth="yes"/>
			<point x="171.1521606445" y="-18"/>
			<point x="-9.8583984375" y="126.3060302734"/>
		</contour>
	</outline>
	<anchor name="bottom" x="548" y="0"/>
	<anchor name="ogonek" x="878" y="0"/>
	<anchor name="top" x="514" y="1000"/>
</glyph>
<glyph name="b" format="2">
	<unicode hex="0062"/>
	<advance width="1122"/>
	<outline>
		<contour>
			<point x="124.8126220703" y="0" type="line"/>
			<point x="134.3804321289" y="427" type="line"/>
			<point x="123.8126220703" y="1395.5721435547" type="line"/>
			<point x="-67.7894287109" y="1416.5721435547" type="line"/>
			<point x="-67.7894287109" y="1509.8732910156" type="line"/>
			<point x="246.2681274414" y="1533.9965820312" type="line"/>
			<point x="265.2681274414" y="1528.9965820312" type="line"/>
			<point x="283.3421020508" y="1505.9965820312" type="line"/>
			<point x="284.3297729492" y="823.7829589844" type="line"/>
			<point x="322.4458007812" y="897.9293212891"/>
			<point x="494.2659301758" y="1022.1022949219"/>
			<point x="597.5676269531" y="1022.1022949219" type="qcurve" smooth="yes"/>
			<point x="815.887512207" y="1022.1022949219"/>
			<point x="1058.6383056641" y="754.5567626953"/>
			<point x="1058.6383056641" y="527.1043701172" type="qcurve" smooth="yes"/>
			<point x="1058.6383056641" y="289.6120605469"/>
			<point x="785.6700439453" y="-26"/>
			<point x="613.7446289062" y="-26" type="qcurve" smooth="yes"/>
			<point x="488.4836425781" y="-26"/>
			<point x="332.1187744141" y="46.341796875"/>
			<point x="290.2934570312" y="82.0880126953" type="qcurve"/>
			<point x="239.9982910156" y="0" type="line"/>
		</contour>
		<contour>
			<point x="284.2681274414" y="359.9180908203" type="line"/>
			<point x="292.7127075195" y="235.8363037109" type="line"/>
			<point x="308.8645629883" y="177.7165527344"/>
			<point x="460.2855834961" y="78.1123046875"/>
			<point x="564.1063232422" y="78.1123046875" type="qcurve" smooth="yes"/>
			<point x="680.1326904297" y="78.1123046875"/>
			<point x="882.0471801758" y="348.6004638672"/>
			<point x="882.0471801758" y="533.0511474609" type="qcurve" smooth="yes"/>
			<point x="882.0471801758" y="687.8154296875"/>
			<point x="704.6087646484" y="907.4343261719"/>
			<point x="574.2492675781" y="907.4343261719" type="qcurve" smooth="yes"/>
			<point x="493.9194335938" y="907.4343261719"/>
			<point x="323.0959472656" y="796.5947265625"/>
			<point x="282.2681274414" y="707.3504638672" type="qcurve"/>
		</contour>
	</outline>
	<anchor name="bottom" x="571" y="0"/>
	<anchor name="top" x="571" y="1533"/>
</glyph>
<glyph name="c" format="2">
	<unicode hex="0063"/>
	<advance width="863"/>
	<outline>
		<contour>
			<point x="64.7697753906" y="484.9580078125" type="qcurve" smooth="yes"/>
			<point x="64.7697753906" y="737.0489501953"/>
			<point x="297.7673339844" y="1026.9958496094"/>
			<point x="499.0879516602" y="1026.9958496094" type="qcurve" smooth="yes"/>
			<point x="597.5466918945" y="1026.9958496094"/>
			<point x="675.2175292969" y="954.5512695312"/>
			<point x="710.1903076172" y="913.2548828125" type="qcurve"/>
			<point x="721.3076171875" y="1000.40625" type="line"/>
			<point x="817.1513061523" y="1000.40625" type="line"/>
			<point x="847.1513061523" y="620.8404541016" type="line"/>
			<point x="743.2449951172" y="620.8404541016" type="line"/>
			<point x="725.2449951172" y="692.6612548828" type="line" smooth="yes"/>
			<point x="705.782043457" y="795.0501098633"/>
			<point x="635.6951904297" y="917.6612548828"/>
			<point x="555.5075073242" y="917.6612548828" type="qcurve" smooth="yes"/>
			<point x="398.4811401367" y="917.6612548828"/>
			<point x="234.3239135742" y="686.6118774414"/>
			<point x="234.3239135742" y="496.9979248047" type="qcurve" smooth="yes"/>
			<point x="234.3239135742" y="314.0702514648"/>
			<point x="428.1272583008" y="71.7788085938"/>
			<point x="576.153503418" y="71.7788085938" type="qcurve" smooth="yes"/>
			<point x="667.2266235352" y="71.7788085938"/>
			<point x="827.6967163086" y="202.1121826172"/>
			<point x="848.4091186523" y="265.1118164062" type="qcurve"/>
			<point x="906.9789428711" y="197" type="line"/>
			<point x="869.3637084961" y="104"/>
			<point x="693.4782104492" y="-30"/>
			<point x="543.7070922852" y="-30" type="qcurve" smooth="yes"/>
			<point x="372.584777832" y="-30"/>
			<point x="64.7697753906" y="249.6785888672"/>
		</contour>
	</outline>
	<anchor name="bottom" x="563" y="0"/>
	<anchor name="top" x="534" y="1000"/>
</glyph>
<glyph name="d" format="2">
	<unicode hex="0064"/>
	<advance width="1152"/>
	<outline>
		<contour>
			<point x="64.6789550781" y="484.4547729492" type="qcurve" smooth="yes"/>
			<point x="64.6789550781" y="717.0455932617"/>
			<point x="312.3212280273" y="1029.1022949219"/>
			<point x="498.2056274414" y="1029.1022949219" type="qcurve" smooth="yes"/>
			<point x="614.1972045898" y="1029.1022949219"/>
			<point x="804.956237793" y="959.0091552734"/>
			<point x="852.9478759766" y="917.9293212891" type="qcurve"/>
			<point x="848.4183959961" y="1405.6954345703" type="line"/>
			<point x="689.4140014648" y="1426.6954345703" type="line"/>
			<point x="689.4140014648" y="1519.9965820312" type="line"/>
			<point x="988.4278564453" y="1533.9965820312" type="line"/>
			<point x="1000.239074707" y="1528.9965820312" type="line"/>
			<point x="1024.3993530273" y="1505.9965820312" type="line"/>
			<point x="1016.8685302734" y="537.2222900391" type="line"/>
			<point x="1029.3146362305" y="108.0009765625" type="line"/>
			<point x="1175.317565918" y="80.0009765625" type="line"/>
			<point x="1175.317565918" y="0" type="line"/>
			<point x="921.8212890625" y="0" type="line"/>
			<point x="901.7293701172" y="14" type="line"/>
			<point x="870.2612915039" y="136.3193359375" type="line"/>
			<point x="833.6937866211" y="75.8662109375"/>
			<point x="597.9978027344" y="-21"/>
			<point x="484.2626342773" y="-21" type="qcurve" smooth="yes"/>
			<point x="334.756652832" y="-21"/>
			<point x="64.6789550781" y="260.141418457"/>
		</contour>
		<contour>
			<point x="236.2700805664" y="493.0511474609" type="qcurve" smooth="yes"/>
			<point x="236.2700805664" y="312.1496582031"/>
			<point x="425.7269287109" y="80.7790527344"/>
			<point x="533.8143310547" y="80.3345947266" type="qcurve" smooth="yes"/>
			<point x="618.151184082" y="79.8901367188"/>
			<point x="833.7431640625" y="180.1875"/>
			<point x="864.3036499023" y="254.0850830078" type="qcurve"/>
			<point x="867.340637207" y="536.0777587891" type="line"/>
			<point x="863.340637207" y="782.5145263672" type="line"/>
			<point x="839.1162719727" y="835.9677734375"/>
			<point x="658.1499633789" y="924.3233642578"/>
			<point x="554.8575439453" y="924.3233642578" type="qcurve" smooth="yes"/>
			<point x="419.5592041016" y="924.3233642578"/>
			<point x="236.2700805664" y="674.33203125"/>
		</contour>
	</outline>
	<anchor name="bottom" x="604" y="0"/>
	<anchor name="center" x="876" y="1202"/>
	<anchor name="top" x="604" y="1534"/>
	<anchor name="topright" x="961" y="1000"/>
	<anchor name="liga" x="1207" y="0"/>
</glyph>
<glyph name="e" format="2">
	<unicode hex="0065"/>
	<advance width="1015"/>
	<outline>
		<contour>
			<point x="61.4968261719" y="490.8081054688" type="qcurve" smooth="yes"/>
			<point x="61.4968261719" y="749.3305664062"/>
			<point x="364.6525268555" y="1028.9692382812"/>
			<point x="566.0034790039" y="1028.9692382812" type="qcurve" smooth="yes"/>
			<point x="771.2426147461" y="1028.9692382812"/>
			<point x="1002.4212036133" y="788.5966796875"/>
			<point x="1023.1790771484" y="591.1309814453" type="qcurve"/>
			<point x="1023.1790771484" y="533.01953125" type="line"/>
			<point x="159.6071166992" y="533.01953125" type="line"/>
			<point x="159.5701293945" y="631.5760498047" type="line"/>
			<point x="845.2791748047" y="631.5760498047" type="line"/>
			<point x="829.1697998047" y="745.3149414062"/>
			<point x="696.0557861328" y="917.7456054688"/>
			<point x="564.3411865234" y="917.7456054688" type="qcurve" smooth="yes"/>
			<point x="431.0313720703" y="917.7456054688"/>
			<point x="224.125" y="706.3693847656"/>
			<point x="225.5694580078" y="521.9313964844" type="qcurve" smooth="yes"/>
			<point x="227.0139160156" y="314.8270874023"/>
			<point x="480.9381713867" y="69.8897705078"/>
			<point x="642.1366577148" y="69.8897705078" type="qcurve" smooth="yes"/>
			<point x="743.6906738281" y="69.8897705078"/>
			<point x="870.3941650391" y="171.2230224609"/>
			<point x="899.009765625" y="247.6673583984" type="qcurve"/>
			<point x="963.1214599609" y="159" type="line"/>
			<point x="899.2091674805" y="81"/>
			<point x="787.3226318359" y="-30"/>
			<point x="615.6796875" y="-30" type="qcurve" smooth="yes"/>
			<point x="367.1887207031" y="-30"/>
			<point x="61.4968261719" y="247.43359375"/>
		</contour>
	</outline>
	<anchor name="bottom" x="578" y="0"/>
	<anchor name="ogonek" x="744" y="0"/>
	<anchor name="top" x="539" y="1000"/>
</glyph>
<glyph name="f" format="2">
	<unicode hex="0066"/>
	<advance width="572"/>
	<outline>
		<contour>
			<point x="22.3963623047" y="0" type="line"/>
			<point x="22.3963623047" y="80.0009765625" type="line"/>
			<point x="234.4383544922" y="107.0009765625" type="line"/>
			<point x="237.4383544922" y="527" type="line"/>
			<point x="237.4383544922" y="888.1998291016" type="line"/>
			<point x="40.8133544922" y="905.1998291016" type="line"/>
			<point x="40.8133544922" y="997.5344238281" type="line"/>
			<point x="237.4383544922" y="1005.5344238281" type="line"/>
			<point x="235.4305419922" y="1356.2080078125" type="line" smooth="yes"/>
			<point x="231.7361450195" y="1422.2336425781"/>
			<point x="339.1729125977" y="1513.0361328125"/>
			<point x="423.5172119141" y="1513.0361328125" type="qcurve" smooth="yes"/>
			<point x="502.7448120117" y="1513.0361328125"/>
			<point x="600.0668945312" y="1483.2362060547"/>
			<point x="611.7948608398" y="1479.8057250977" type="qcurve" smooth="yes"/>
			<point x="622.142578125" y="1470.6254272461" type="line"/>
			<point x="590.2753295898" y="1374.7745361328" type="line"/>
			<point x="600.5983886719" y="1375.6949462891" type="line" smooth="yes"/>
			<point x="585.1249389648" y="1389.3713378906"/>
			<point x="531.0432128906" y="1417.3353271484"/>
			<point x="500.0749511719" y="1417.3353271484" type="qcurve" smooth="yes"/>
			<point x="449.0588989258" y="1417.3353271484"/>
			<point x="389.9717407227" y="1348.1135864258"/>
			<point x="390.3876953125" y="1323.4774780273" type="qcurve" smooth="yes"/>
			<point x="393.9061889648" y="996.5344238281" type="line"/>
			<point x="588.1171264648" y="996.5344238281" type="line"/>
			<point x="588.1171264648" y="895.1998291016" type="line"/>
			<point x="393.9061889648" y="895.1998291016" type="line"/>
			<point x="391.9061889648" y="527" type="line"/>
			<point x="403.9061889648" y="107.0009765625" type="line"/>
			<point x="625.5885620117" y="80.0009765625" type="line"/>
			<point x="625.5885620117" y="0" type="line"/>
		</contour>
	</outline>
	<anchor name="bottom" x="314" y="0"/>
	<anchor name="top" x="314" y="1536"/>
</glyph>
<glyph name="g" format="2">
	<unicode hex="0067"/>
	<advance width="1132"/>
	<outline>
		<contour>
			<point x="105.3638916016" y="-235.2380981445" type="qcurve" smooth="yes"/>
			<point x="105.3638916016" y="-120.2807617188"/>
			<point x="243.3181152344" y="32.1208496094"/>
			<point x="396.9118041992" y="81.7548828125" type="qcurve"/>
			<point x="505.5259399414" y="76.8745117188" type="line"/>
			<point x="294.3413085938" y="-11.2854003906"/>
			<point x="258.5974731445" y="-145.9243164062"/>
			<point x="258.5974731445" y="-223.787109375" type="qcurve" smooth="yes"/>
			<point x="258.5974731445" y="-311.7775878906"/>
			<point x="458.4877319336" y="-389.7766113281"/>
			<point x="616.9951782227" y="-389.7766113281" type="qcurve" smooth="yes"/>
			<point x="758.5787963867" y="-389.7766113281"/>
			<point x="909.5955200195" y="-301.4223632812"/>
			<point x="909.5955200195" y="-211.8669433594" type="qcurve" smooth="yes"/>
			<point x="909.5955200195" y="-117.7338867188"/>
			<point x="792.689453125" y="-73.4336547852"/>
			<point x="571.9874267578" y="-58.0732421875" type="qcurve" smooth="yes"/>
			<point x="334.8424072266" y="-40.2076416016"/>
			<point x="142.0200805664" y="36.7919921875"/>
			<point x="142.0200805664" y="139.6286010742" type="qcurve" smooth="yes"/>
			<point x="142.0200805664" y="227.2387084961"/>
			<point x="295.8490600586" y="330.5958251953"/>
			<point x="356.0838623047" y="344.4233398438" type="qcurve"/>
			<point x="415.0629272461" y="292.9637451172" type="line"/>
			<point x="354.1254272461" y="284.1623535156"/>
			<point x="279.0440673828" y="231.796081543"/>
			<point x="279.0440673828" y="191.7515869141" type="qcurve" smooth="yes"/>
			<point x="279.0440673828" y="148.2133178711"/>
			<point x="412.0490112305" y="99.2008666992"/>
			<point x="650.5981445312" y="84.3206176758" type="qcurve" smooth="yes"/>
			<point x="842.6334228516" y="69.0372314453"/>
			<point x="1056.088684082" y="-23.8389892578"/>
			<point x="1056.088684082" y="-166.279296875" type="qcurve" smooth="yes"/>
			<point x="1056.088684082" y="-303.6696777344"/>
			<point x="806.167175293" y="-490"/>
			<point x="594.0767822266" y="-490" type="qcurve" smooth="yes"/>
			<point x="404.8985595703" y="-490"/>
			<point x="105.3638916016" y="-361.5184936523"/>
		</contour>
		<contour>
			<point x="167.9992675781" y="628.1416015625" type="qcurve" smooth="yes"/>
			<point x="167.9992675781" y="796.5673217773"/>
			<point x="415.3480224609" y="1027.9692382812"/>
			<point x="595.6842651367" y="1027.9692382812" type="qcurve" smooth="yes"/>
			<point x="767.6113891602" y="1027.9692382812"/>
			<point x="1007.6687011719" y="815.5673217773"/>
			<point x="1007.6687011719" y="641.2042236328" type="qcurve" smooth="yes"/>
			<point x="1008.6687011719" y="483.3462524414"/>
			<point x="758.7604370117" y="224.8448486328"/>
			<point x="603.6145629883" y="224.8448486328" type="qcurve" smooth="yes"/>
			<point x="419.3193359375" y="224.8448486328"/>
			<point x="167.9992675781" y="460.4079589844"/>
		</contour>
		<contour>
			<point x="341.5534057617" y="621.8177490234" type="qcurve" smooth="yes"/>
			<point x="341.5534057617" y="479.5239868164"/>
			<point x="455.2350463867" y="330.068359375"/>
			<point x="597.6569213867" y="330.068359375" type="qcurve" smooth="yes"/>
			<point x="719.0787963867" y="330.068359375"/>
			<point x="834.1022338867" y="494.412902832"/>
			<point x="834.1022338867" y="631.8177490234" type="qcurve" smooth="yes"/>
			<point x="834.1022338867" y="757.1115112305"/>
			<point x="730.1334838867" y="910.4122314453"/>
			<point x="597.7116088867" y="910.4122314453" type="qcurve" smooth="yes"/>
			<point x="457.2897338867" y="910.4122314453"/>
			<point x="341.5534057617" y="745.5559692383"/>
		</contour>
		<contour>
			<point x="704.5358276367" y="913.8571777344" type="line"/>
			<point x="673.5358276367" y="990.9692382812" type="line"/>
			<point x="1113.9401855469" y="992.9692382812" type="line"/>
			<point x="1113.9401855469" y="885.8570556641" type="line"/>
		</contour>
	</outline>
	<anchor name="bottom" x="524" y="-416"/>
	<anchor name="top" x="484" y="1000"/>
</glyph>
<glyph name="h" format="2">
	<unicode hex="0068"/>
	<advance width="1127"/>
	<outline>
		<contour>
			<point x="72.658203125" y="0" type="line"/>
			<point x="72.658203125" y="80.0009765625" type="line"/>
			<point x="196.3413085938" y="107.0009765625" type="line"/>
			<point x="194.3413085938" y="529.1156005859" type="line"/>
			<point x="192.3413085938" y="1405.6954345703" type="line"/>
			<point x="32.3383789062" y="1426.6954345703" type="line"/>
			<point x="32.3383789062" y="1519.9965820312" type="line"/>
			<point x="332.8338012695" y="1533.9965820312" type="line"/>
			<point x="340.8338012695" y="1528.9965820312" type="line"/>
			<point x="351.8338012695" y="1505.9965820312" type="line"/>
			<point x="353.8338012695" y="853.2849121094" type="line"/>
			<point x="413.3041381836" y="928.4512939453"/>
			<point x="562.2191772461" y="1021.9958496094"/>
			<point x="685.9136352539" y="1021.9958496094" type="qcurve" smooth="yes"/>
			<point x="819.8020019531" y="1021.9958496094"/>
			<point x="966.9079589844" y="885.7607421875"/>
			<point x="966.9079589844" y="746.4020996094" type="qcurve" smooth="yes"/>
			<point x="966.9079589844" y="690.8369140625"/>
			<point x="964.9235839844" y="608.9283447266"/>
			<point x="964.9235839844" y="529.1156005859" type="qcurve" smooth="yes"/>
			<point x="971.8845214844" y="107.0009765625" type="line"/>
			<point x="1143.1262207031" y="80.0009765625" type="line"/>
			<point x="1143.1262207031" y="0" type="line"/>
			<point x="615.5096435547" y="0" type="line"/>
			<point x="615.5096435547" y="80.0009765625" type="line"/>
			<point x="809.9105224609" y="107.0009765625" type="line"/>
			<point x="803.9417724609" y="529.1156005859" type="line"/>
			<point x="803.9417724609" y="715.8121337891" type="line" smooth="yes"/>
			<point x="803.9417724609" y="788.6649169922"/>
			<point x="699.9678955078" y="887.0067138672"/>
			<point x="626.3089599609" y="887.0067138672" type="qcurve" smooth="yes"/>
			<point x="542.1622314453" y="887.0067138672"/>
			<point x="420.7555541992" y="829.1832275391"/>
			<point x="354.8338012695" y="727.9775390625" type="qcurve"/>
			<point x="354.8338012695" y="529.1022949219" type="line"/>
			<point x="362.8338012695" y="107.0009765625" type="line"/>
			<point x="508.2368774414" y="80.0009765625" type="line"/>
			<point x="508.2368774414" y="0" type="line"/>
		</contour>
	</outline>
	<anchor name="bottom" x="629" y="0"/>
	<anchor name="center" x="347" y="1202"/>
	<anchor name="top" x="304" y="1534"/>
</glyph>
<glyph name="k" format="2">
	<unicode hex="006B"/>
	<advance width="1022"/>
	<outline>
		<contour>
			<point x="75.9527587891" y="0" type="line"/>
			<point x="75.9527587891" y="80.0009765625" type="line"/>
			<point x="222.9556884766" y="107.0009765625" type="line"/>
			<point x="223.9680175781" y="527" type="line"/>
			<point x="220.9556884766" y="1405.6954345703" type="line"/>
			<point x="39.3536376953" y="1426.6954345703" type="line"/>
			<point x="39.3536376953" y="1519.9965820312" type="line"/>
			<point x="362.4605102539" y="1533.9965820312" type="line"/>
			<point x="370.4605102539" y="1528.9965820312" type="line"/>
			<point x="381.4605102539" y="1505.9965820312" type="line"/>
			<point x="383.4481811523" y="547" type="line"/>
			<point x="394.4605102539" y="107.0009765625" type="line"/>
			<point x="541.4634399414" y="80.0009765625" type="line"/>
			<point x="541.4634399414" y="0" type="line"/>
		</contour>
		<contour>
			<point x="308.4611816406" y="367.5208740234" type="line"/>
			<point x="306.4611816406" y="499.0023803711" type="line"/>
			<point x="779.05859375" y="889.4681396484" type="line"/>
			<point x="664.0556640625" y="916.4681396484" type="line"/>
			<point x="664.0556640625" y="1001.9692382812" type="line"/>
			<point x="1017.8425292969" y="1001.9692382812" type="line"/>
			<point x="1017.8425292969" y="916.4681396484" type="line"/>
			<point x="880.8395996094" y="892.4681396484" type="line"/>
		</contour>
		<contour>
			<point x="468.8026123047" y="551.9248046875" type="line"/>
			<point x="568.4462890625" y="664.0899658203" type="line"/>
			<point x="984.7033691406" y="107.0009765625" type="line"/>
			<point x="1097.7062988281" y="80.0009765625" type="line"/>
			<point x="1097.7062988281" y="0" type="line"/>
			<point x="685.2861328125" y="0" type="line"/>
			<point x="679.3719482422" y="86.0322875977" type="line"/>
			<point x="821.1433105469" y="109.958190918" type="line"/>
		</contour>
	</outline>
	<anchor name="bottom" x="608" y="0"/>
	<anchor name="top" x="578" y="1534"/>
</glyph>
<glyph name="m" format="2">
	<unicode hex="006D"/>
	<advance width="1732"/>
	<outline>
		<contour>
			<point x="76.9527587891" y="0" type="line"/>
			<point x="76.9527587891" y="80.0009765625" type="line"/>
			<point x="222.9556884766" y="107.0009765625" type="line"/>
			<point x="225.9680175781" y="529.1156005859" type="line"/>
			<point x="222.9556884766" y="871.6680908203" type="line"/>
			<point x="52.9527587891" y="891.6680908203" type="line"/>
			<point x="52.9527587891" y="989.9692382812" type="line"/>
			<point x="336.2385864258" y="1001.9692382812" type="line"/>
			<point x="369.8063964844" y="979.9075927734" type="line"/>
			<point x="387.4605102539" y="838.8134155273" type="line"/>
			<point x="415.0098266602" y="890.6867675781"/>
			<point x="610.7082519531" y="1022.9692382812"/>
			<point x="725.9010620117" y="1022.9692382812" type="qcurve" smooth="yes"/>
			<point x="821.5637207031" y="1022.9692382812"/>
			<point x="991.4166870117" y="929.6087036133"/>
			<point x="994.1564331055" y="838.2456054688" type="qcurve"/>
			<point x="1037.0866088867" y="896.6771240234"/>
			<point x="1220.1273803711" y="1022.9692382812"/>
			<point x="1346.8123168945" y="1022.9692382812" type="qcurve" smooth="yes"/>
			<point x="1436.5128173828" y="1022.9692382812"/>
			<point x="1610.7997436523" y="901.5551757812"/>
			<point x="1610.7997436523" y="721.5786132812" type="qcurve" smooth="yes"/>
			<point x="1610.7997436523" y="695.6185302734"/>
			<point x="1608.2822265625" y="542.1022949219"/>
			<point x="1608.2689208984" y="519.1156005859" type="qcurve" smooth="yes"/>
			<point x="1614.7997436523" y="107.0009765625" type="line"/>
			<point x="1754.8026733398" y="80.0009765625" type="line"/>
			<point x="1754.8026733398" y="0" type="line"/>
			<point x="1304.3043212891" y="0" type="line"/>
			<point x="1304.3043212891" y="80.0009765625" type="line"/>
			<point x="1446.3072509766" y="107.0009765625" type="line"/>
			<point x="1449.3195800781" y="529.1156005859" type="line"/>
			<point x="1450.2084960938" y="702.4921875" type="line" smooth="yes"/>
			<point x="1450.6529541016" y="799"/>
			<point x="1296.507019043" y="892.2890625"/>
			<point x="1270.5130615234" y="892.2890625" type="qcurve" smooth="yes"/>
			<point x="1168.1100463867" y="892.2890625"/>
			<point x="1035.0485839844" y="780.1126708984"/>
			<point x="1000.6625976562" y="710.6640625" type="qcurve"/>
			<point x="998.6379394531" y="725.2608642578"/>
			<point x="1000.1317749023" y="560.0710449219"/>
			<point x="1000.1317749023" y="530.1156005859" type="qcurve" smooth="yes"/>
			<point x="1002.6625976562" y="107.0009765625" type="line"/>
			<point x="1157.6655273438" y="80.0009765625" type="line"/>
			<point x="1157.6655273438" y="0" type="line"/>
			<point x="697.167175293" y="0" type="line"/>
			<point x="697.167175293" y="80.0009765625" type="line"/>
			<point x="835.1701049805" y="107.0009765625" type="line"/>
			<point x="840.182434082" y="529.1156005859" type="line"/>
			<point x="840.182434082" y="702.4921875" type="line" smooth="yes"/>
			<point x="840.182434082" y="799"/>
			<point x="721.8949584961" y="889.2890625"/>
			<point x="681.9536743164" y="889.2890625" type="qcurve" smooth="yes"/>
			<point x="580.305480957" y="889.2890625"/>
			<point x="416.5778808594" y="777.4461669922"/>
			<point x="385.4975585938" y="704.6640625" type="qcurve"/>
			<point x="385.4358520508" y="529.1156005859" type="line"/>
			<point x="394.4481811523" y="107.0009765625" type="line"/>
			<point x="543.4511108398" y="80.0009765625" type="line"/>
			<point x="543.4511108398" y="0" type="line"/>
		</contour>
	</outline>
	<anchor name="bottom" x="958" y="0"/>
	<anchor name="top" x="958" y="1000"/>
</glyph>
<glyph name="q" format="2">
	<unicode hex="0071"/>
	<advance width="1116"/>
	<outline>
		<contour>
			<point x="68.3156738281" y="491.9979248047" type="qcurve" smooth="yes"/>
			<point x="68.3156738281" y="742.490234375"/>
			<point x="327.460144043" y="1030.1022949219"/>
			<point x="529.0036621094" y="1030.1022949219" type="qcurve" smooth="yes"/>
			<point x="621.5982055664" y="1030.1022949219"/>
			<point x="763.9161987305" y="952.9958496094"/>
			<point x="791.4767456055" y="908.9293212891" type="qcurve"/>
			<point x="823.4767456055" y="1021.1022949219" type="line"/>
			<point x="1131.9475097656" y="985.1022949219" type="line"/>
			<point x="1131.9475097656" y="896.251159668" type="line"/>
			<point x="943.9445800781" y="896.251159668" type="line"/>
			<point x="940.9445800781" y="435.8914794922" type="line"/>
			<point x="947.9445800781" y="-366.9990234375" type="line"/>
			<point x="1109.9475097656" y="-393.9990234375" type="line"/>
			<point x="1109.9475097656" y="-480" type="line"/>
			<point x="590.473815918" y="-480" type="line"/>
			<point x="590.473815918" y="-393.9990234375" type="line"/>
			<point x="785.4767456055" y="-366.9990234375" type="line"/>
			<point x="785.4767456055" y="129.2794189453" type="line"/>
			<point x="799.0738525391" y="76.1596679688"/>
			<point x="670.577331543" y="-21"/>
			<point x="459.2691040039" y="-21" type="qcurve" smooth="yes"/>
			<point x="288.596862793" y="-21"/>
			<point x="68.3156738281" y="245.5322265625"/>
		</contour>
		<contour>
			<point x="231.8204956055" y="496.0511474609" type="qcurve" smooth="yes"/>
			<point x="231.8204956055" y="276.3254394531"/>
			<point x="380.649597168" y="86.5570068359"/>
			<point x="494.6759643555" y="86.5570068359" type="qcurve" smooth="yes"/>
			<point x="588.8517456055" y="86.5570068359"/>
			<point x="772.7794799805" y="186.2586669922"/>
			<point x="782.4767456055" y="252.7119140625" type="qcurve"/>
			<point x="779.4767456055" y="794.6525878906" type="line"/>
			<point x="764.8341674805" y="845.4390869141"/>
			<point x="586.3029174805" y="922.5455322266"/>
			<point x="552.8673706055" y="922.5455322266" type="qcurve" smooth="yes"/>
			<point x="380.841003418" y="922.5455322266"/>
			<point x="231.8204956055" y="701.1102294922"/>
		</contour>
	</outline>
	<anchor name="bottom" x="594" y="0"/>
	<anchor name="top" x="594" y="1000"/>
</glyph>
<glyph name="r" format="2">
	<unicode hex="0072"/>
	<advance width="883"/>
	<outline>
		<contour>
			<point x="77.9956054688" y="0" type="line"/>
			<point x="77.9956054688" y="80.0009765625" type="line"/>
			<point x="223.9985351562" y="107.0009765625" type="line"/>
			<point x="227.0108642578" y="508.9692382812" type="line"/>
			<point x="221.9985351562" y="856.4831542969" type="line"/>
			<point x="51.9956054688" y="891.6680908203" type="line"/>
			<point x="51.9956054688" y="989.9692382812" type="line"/>
			<point x="339.8492431641" y="1001.9692382812" type="line"/>
			<point x="377.9725341797" y="984.9692382812" type="line"/>
			<point x="382.5033569336" y="721.4141845703" type="line"/>
			<point x="439.6866455078" y="831.9692382812"/>
			<point x="677.2746582031" y="1012.9559326172"/>
			<point x="807.2863769531" y="1012.9692382812" type="qcurve" smooth="yes"/>
			<point x="896.0765991211" y="1012.9692382812" type="line"/>
			<point x="896.0765991211" y="764.2054443359" type="line"/>
			<point x="788.0778198242" y="764.2054443359" type="line"/>
			<point x="711.7073364258" y="904.4125976562" type="line"/>
			<point x="652.469909668" y="898.9680175781"/>
			<point x="452.4375" y="711.6162719727"/>
			<point x="387.5033569336" y="595.5235595703" type="qcurve"/>
			<point x="387.5033569336" y="508.9692382812" type="line"/>
			<point x="395.5033569336" y="107.0009765625" type="line"/>
			<point x="564.5062866211" y="80.0009765625" type="line"/>
			<point x="564.5062866211" y="0" type="line"/>
		</contour>
	</outline>
	<anchor name="bottom" x="432" y="0"/>
	<anchor name="top" x="486" y="1000"/>
</glyph>
<glyph name="s" format="2">
	<unicode hex="0073"/>
	<advance width="924"/>
	<outline>
		<contour>
			<point x="153.8252563477" y="10.5895996094" type="line"/>
			<point x="153.8252563477" y="345.0444335938" type="line"/>
			<point x="265.3610839844" y="345.0444335938" type="line"/>
			<point x="277.8795776367" y="320.2236328125" type="line" smooth="yes"/>
			<point x="306.8905639648" y="202.8748779297"/>
			<point x="370.1429443359" y="75.4458007812"/>
			<point x="499.8483276367" y="75.4458007812" type="qcurve" smooth="yes"/>
			<point x="611.7786865234" y="75.4458007812"/>
			<point x="723.3607788086" y="198.26171875"/>
			<point x="723.3607788086" y="279.9542236328" type="qcurve" smooth="yes"/>
			<point x="723.3607788086" y="374.3515014648"/>
			<point x="684.6909179688" y="424.3193359375"/>
			<point x="465.3284301758" y="481.8125610352" type="qcurve" smooth="yes"/>
			<point x="273.9211425781" y="527.7686157227"/>
			<point x="166.3623046875" y="637.1232299805"/>
			<point x="166.3623046875" y="751.9428710938" type="qcurve" smooth="yes"/>
			<point x="166.3623046875" y="872.3682861328"/>
			<point x="327.7081298828" y="1029.9692382812"/>
			<point x="469.5738525391" y="1029.9692382812" type="qcurve" smooth="yes"/>
			<point x="583.5707397461" y="1029.9692382812"/>
			<point x="642.6810302734" y="974.9938964844"/>
			<point x="676.0858154297" y="939.9815673828" type="qcurve"/>
			<point x="707.604309082" y="991.3796386719" type="line"/>
			<point x="813.2144165039" y="991.3796386719" type="line"/>
			<point x="813.2144165039" y="687.2581787109" type="line"/>
			<point x="694.6044921875" y="687.2581787109" type="line"/>
			<point x="674.5798339844" y="745.0653076172" type="line" smooth="yes"/>
			<point x="648.5401611328" y="846.2703857422"/>
			<point x="589.9276733398" y="914.0789794922"/>
			<point x="483.9689331055" y="914.0789794922" type="qcurve" smooth="yes"/>
			<point x="406.7213134766" y="914.0789794922"/>
			<point x="326.0041503906" y="842.1949462891"/>
			<point x="326.0041503906" y="774.4619140625" type="qcurve" smooth="yes"/>
			<point x="326.0041503906" y="704.5270385742"/>
			<point x="401.5244750977" y="636.5438842773"/>
			<point x="665.3045654297" y="591.3966064453" type="qcurve" smooth="yes"/>
			<point x="736.6573486328" y="582.1936035156"/>
			<point x="889.4717407227" y="428.0101928711"/>
			<point x="889.4717407227" y="275.9108886719" type="qcurve" smooth="yes"/>
			<point x="889.4717407227" y="138.0503540039"/>
			<point x="716.4769287109" y="-31"/>
			<point x="545.8823852539" y="-31" type="qcurve" smooth="yes"/>
			<point x="405.5369873047" y="-31"/>
			<point x="337.306640625" y="49.0123291016"/>
			<point x="293.4846801758" y="111.9876708984" type="qcurve"/>
			<point x="251.9291992188" y="10.5895996094" type="line"/>
		</contour>
	</outline>
	<anchor name="bottom" x="468" y="0"/>
	<anchor name="top" x="416" y="1000"/>
</glyph>
<glyph name="t" format="2">
	<unicode hex="0074"/>
	<advance width="613"/>
	<outline>
		<contour>
			<point x="84.5424804688" y="903.8444824219" type="line"/>
			<point x="84.5424804688" y="975.7341308594" type="line"/>
			<point x="164.5424804688" y="985.7341308594"/>
			<point x="298.3189697266" y="1084.7297363281"/>
			<point x="327.50390625" y="1228" type="qcurve"/>
			<point x="356.50390625" y="1228" type="line"/>
			<point x="378.50390625" y="1203" type="line"/>
			<point x="373.50390625" y="993.1790771484" type="line"/>
			<point x="628.6846313477" y="993.1790771484" type="line"/>
			<point x="628.6846313477" y="893.6223144531" type="line"/>
			<point x="403.3799438477" y="893.6223144531" type="line"/>
			<point x="401.3799438477" y="528.6232910156" type="line"/>
			<point x="403.3799438477" y="227.4454345703" type="line" smooth="yes"/>
			<point x="403.3799438477" y="155.4454345703"/>
			<point x="460.4268188477" y="100.4454345703"/>
			<point x="547.5674438477" y="104.4454345703" type="qcurve" smooth="yes"/>
			<point x="634.9033813477" y="114.4454345703" type="line"/>
			<point x="634.9033813477" y="33" type="line"/>
			<point x="311.5737304688" y="-8" type="line"/>
			<point x="262.4252929688" y="-5"/>
			<point x="242.8627929688" y="70"/>
			<point x="243.8627929688" y="129" type="qcurve" smooth="yes"/>
			<point x="247.8627929688" y="528.6232910156" type="line"/>
			<point x="245.8627929688" y="890.8444824219" type="line"/>
		</contour>
	</outline>
	<anchor name="bottom" x="322" y="0"/>
	<anchor name="center" x="312" y="622"/>
	<anchor name="top" x="322" y="1179"/>
	<anchor name="topright" x="540" y="1000"/>
</glyph>
<glyph name="jdotless" format="2">
	<advance width="581"/>
	<outline>
		<contour>
			<point x="38.029296875" y="-470" type="qcurve"/>
			<point x="39.0416259766" y="-357.3984375" type="line"/>
			<point x="113.5494384766" y="-358.2984619141"/>
			<point x="180.9556884766" y="-313.7537841797"/>
			<point x="180.9556884766" y="-277.9453125" type="qcurve" smooth="yes"/>
			<point x="181.943359375" y="528.9692382812" type="line"/>
			<point x="176.9063720703" y="865.0509643555" type="line"/>
			<point x="25.9404296875" y="886.5447998047" type="line"/>
			<point x="25.9404296875" y="978.8459472656" type="line"/>
			<point x="292.1522827148" y="1004.9692382812" type="line"/>
			<point x="324.3618774414" y="1002.9692382812" type="line"/>
			<point x="344.4728393555" y="952.2658081055" type="line"/>
			<point x="337.4358520508" y="528.9692382812" type="line"/>
			<point x="342.4481811523" y="-270.9765625" type="line" smooth="yes"/>
			<point x="343.9543457031" y="-376.9765625"/>
			<point x="166.3406982422" y="-482"/>
		</contour>
	</outline>
	<anchor name="bottom" x="278" y="-436"/>
	<anchor name="top" x="278" y="1000"/>
	<anchor name="_liga" x="0" y="0"/>
</glyph>
